HIERARCHY
ROOT hip
{
  OFFSET 0 0 0
  CHANNELS 6 Xposition Yposition Zposition Zrotation Yrotation Xrotation
  JOINT abdomen
  {
    OFFSET 0 20.6881 -0.73152
    CHANNELS 3 Zrotation Xrotation Yrotation
    JOINT chest
    {
      OFFSET 0 11.7043 -0.48768
      CHANNELS 3 Zrotation Xrotation Yrotation
      JOINT neck
      {
        OFFSET 0 22.1894 -2.19456
        CHANNELS 3 Zrotation Xrotation Yrotation
        JOINT head
        {
          OFFSET -0.24384 7.07133 1.2192
          CHANNELS 3 Zrotation Xrotation Yrotation
          JOINT leftEye
          {
            OFFSET 4.14528 8.04674 8.04672
            CHANNELS 3 Zrotation Xrotation Yrotation
            End Site
            {
              OFFSET 1 0 0
            }
          }
          JOINT rightEye
          {
            OFFSET -3.6576 8.04674 8.04672
            CHANNELS 3 Zrotation Xrotation Yrotation
            End Site
            {
              OFFSET 1 0 0
            }
          }
        }
      }
      JOINT rCollar
      {
        OFFSET -2.68224 19.2634 -4.8768
        CHANNELS 3 Zrotation Xrotation Yrotation
        JOINT rShldr
        {
          OFFSET -8.77824 -1.95073 1.46304
          CHANNELS 3 Zrotation Xrotation Yrotation
          JOINT rForeArm
          {
            OFFSET -28.1742 -1.7115 0.48768
            CHANNELS 3 Zrotation Xrotation Yrotation
            JOINT rHand
            {
              OFFSET -22.5879 0.773209 7.07136
              CHANNELS 3 Zrotation Xrotation Yrotation
              JOINT rThumb1
              {
                OFFSET -1.2192 -0.487915 3.41376
                CHANNELS 3 Zrotation Xrotation Yrotation
                JOINT rThumb2
                {
                  OFFSET -3.37035 -0.52449 3.41376
                  CHANNELS 3 Zrotation Xrotation Yrotation
                  End Site
                  {
                    OFFSET -1.78271 -1.18214 1.43049
                  }
                }
              }
              JOINT rIndex1
              {
                OFFSET -7.75947 0.938293 5.60832
                CHANNELS 3 Zrotation Xrotation Yrotation
                JOINT rIndex2
                {
                  OFFSET -2.54057 -0.884171 1.56538
                  CHANNELS 3 Zrotation Xrotation Yrotation
                  End Site
                  {
                    OFFSET -1.62519 -0.234802 1.16502
                  }
                }
              }
              JOINT rMid1
              {
                OFFSET -8.24714 1.18213 3.41376
                CHANNELS 3 Zrotation Xrotation Yrotation
                JOINT rMid2
                {
                  OFFSET -3.10165 -0.590103 1.0647
                  CHANNELS 3 Zrotation Xrotation Yrotation
                  End Site
                  {
                    OFFSET -2.48547 -0.328903 0.83742
                  }
                }
              }
              JOINT rRing1
              {
                OFFSET -8.82822 0.546677 1.51678
                CHANNELS 3 Zrotation Xrotation Yrotation
                JOINT rRing2
                {
                  OFFSET -2.60934 -0.819778 -0.0198488
                  CHANNELS 3 Zrotation Xrotation Yrotation
                  End Site
                  {
                    OFFSET -2.33842 -0.294052 0.168128
                  }
                }
              }
              JOINT rPinky1
              {
                OFFSET -8.27202 -0.0477905 -0.4584
                CHANNELS 3 Zrotation Xrotation Yrotation
                JOINT rPinky2
                {
                  OFFSET -1.82734 -0.647385 -0.700984
                  CHANNELS 3 Zrotation Xrotation Yrotation
                  End Site
                  {
                    OFFSET -1.69225 -0.51767 -0.607171
                  }
                }
              }
            }
          }
        }
      }
      JOINT lCollar
      {
        OFFSET 2.68224 19.2634 -4.8768
        CHANNELS 3 Zrotation Xrotation Yrotation
        JOINT lShldr
        {
          OFFSET 8.77824 -1.95073 1.46304
          CHANNELS 3 Zrotation Xrotation Yrotation
          JOINT lForeArm
          {
            OFFSET 28.1742 -1.7115 0.48768
            CHANNELS 3 Zrotation Xrotation Yrotation
            JOINT lHand
            {
              OFFSET 22.5879 0.773209 7.07136
              CHANNELS 3 Zrotation Xrotation Yrotation
              JOINT lThumb1
              {
                OFFSET 1.2192 -0.487915 3.41376
                CHANNELS 3 Zrotation Xrotation Yrotation
                JOINT lThumb2
                {
                  OFFSET 3.37035 -0.52449 3.41376
                  CHANNELS 3 Zrotation Xrotation Yrotation
                  End Site
                  {
                    OFFSET 1.78271 -1.18214 1.43049
                  }
                }
              }
              JOINT lIndex1
              {
                OFFSET 7.75947 0.938293 5.60832
                CHANNELS 3 Zrotation Xrotation Yrotation
                JOINT lIndex2
                {
                  OFFSET 2.54057 -0.884171 1.56538
                  CHANNELS 3 Zrotation Xrotation Yrotation
                  End Site
                  {
                    OFFSET 1.62519 -0.234802 1.16502
                  }
                }
              }
              JOINT lMid1
              {
                OFFSET 8.24714 1.18213 3.41376
                CHANNELS 3 Zrotation Xrotation Yrotation
                JOINT lMid2
                {
                  OFFSET 3.10165 -0.590103 1.0647
                  CHANNELS 3 Zrotation Xrotation Yrotation
                  End Site
                  {
                    OFFSET 2.48547 -0.328903 0.83742
                  }
                }
              }
              JOINT lRing1
              {
                OFFSET 8.82822 0.546677 1.51678
                CHANNELS 3 Zrotation Xrotation Yrotation
                JOINT lRing2
                {
                  OFFSET 2.60934 -0.819778 -0.0198488
                  CHANNELS 3 Zrotation Xrotation Yrotation
                  End Site
                  {
                    OFFSET 2.33842 -0.294052 0.168128
                  }
                }
              }
              JOINT lPinky1
              {
                OFFSET 8.27202 -0.0477905 -0.4584
                CHANNELS 3 Zrotation Xrotation Yrotation
                JOINT lPinky2
                {
                  OFFSET 1.82734 -0.647385 -0.700984
                  CHANNELS 3 Zrotation Xrotation Yrotation
                  End Site
                  {
                    OFFSET 1.69225 -0.51767 -0.607171
                  }
                }
              }
            }
          }
        }
      }
    }
  }
  JOINT rButtock
  {
    OFFSET -8.77824 4.35084 1.2192
    CHANNELS 3 Zrotation Xrotation Yrotation
    JOINT rThigh
    {
      OFFSET 0 -1.70687 -2.19456
      CHANNELS 3 Zrotation Xrotation Yrotation
      JOINT rShin
      {
        OFFSET 0 -36.8199 0.73152
        CHANNELS 3 Zrotation Xrotation Yrotation
        JOINT rFoot
        {
          OFFSET 0.73152 -45.1104 -5.12064
          CHANNELS 3 Zrotation Xrotation Yrotation
          End Site
          {
            OFFSET -1.1221 -3.69964 12.103
          }
        }
      }
    }
  }
  JOINT lButtock
  {
    OFFSET 8.77824 4.35084 1.2192
    CHANNELS 3 Zrotation Xrotation Yrotation
    JOINT lThigh
    {
      OFFSET 0 -1.70687 -2.19456
      CHANNELS 3 Zrotation Xrotation Yrotation
      JOINT lShin
      {
        OFFSET 0 -36.8199 0.73152
        CHANNELS 3 Zrotation Xrotation Yrotation
        JOINT lFoot
        {
          OFFSET -0.73152 -45.1104 -5.12064
          CHANNELS 3 Zrotation Xrotation Yrotation
          End Site
          {
            OFFSET 1.1221 -3.69964 12.103
          }
        }
      }
    }
  }
}
MOTION
Frames:	4
Frame Time:	0.00833333
76.8981 79.7831 0.385078 3.388 -46.3378 342.937 -11.4527 28.3762 1.57548 1.48672 -7.64502 -0.325571 10.6365 -8.33942 8.45745 -21.2396 -14.1456 9.79213 -0.0 0.0 0.0 -0.0 0.0 0.0 -1.03193e-13 -3.14161e-13 1.45209e-13 36.4786 -35.6642 -41.9908 -16.6571 -9.31436 31.0686 -2.65322 -41.2116 -7.06466 7.0951e-10 5.53477e-09 -1.68724e-09 1.27473e-09 9.35641e-09 -2.88958e-09 7.09518e-10 5.53476e-09 -1.68725e-09 7.73091 5.47488 0.417314 7.09514e-10 5.53476e-09 -1.68724e-09 2.90554 0.965183 0.102902 7.09522e-10 5.53477e-09 -1.68725e-09 10.2786 0.731801 0.0259123 7.09505e-10 5.53476e-09 -1.68724e-09 2.22167 -0.733487 -0.20892 -1.03454e-13 -3.1415e-13 1.45013e-13 -35.5205 -1.06162 3.61253 27.1042 -26.6924 -61.9838 1.8362 -35.5247 5.75269 -5.62761e-10 1.12316e-08 2.50874e-10 -9.77778e-10 1.94203e-08 4.21e-10 -5.62765e-10 1.12316e-08 2.50884e-10 -7.73091 5.47488 -0.417314 -5.62761e-10 1.12316e-08 2.50876e-10 -2.90554 0.965183 -0.102902 -5.62769e-10 1.12316e-08 2.50877e-10 -10.2786 0.731801 -0.0259123 -5.6276e-10 1.12316e-08 2.50864e-10 -2.22167 -0.733487 0.20892 -2.03217e-16 0.0 -3.88251e-19 -24.8754 -30.7154 -17.5248 -0.676815 52.3856 1.04091 -11.5787 -16.1682 -28.8381 2.03217e-16 0.0 3.88251e-19 -9.64265 -5.77632 8.02421 0.42652 43.2146 -0.731033 1.19321 -21.0736 1.77183
77.9039 80.038 0.0839336 3.3768 -45.3574 343.27 -12.4736 28.1725 2.00493 1.75973 -7.41893 -0.267587 10.7135 -7.84164 8.66284 -21.6063 -14.1906 10.2149 -0.0 0.0 0.0 -0.0 0.0 0.0 -1.621e-14 -2.06103e-13 2.53912e-14 36.8462 -34.5258 -40.5456 -17.023 -9.67328 31.8652 -2.89357 -42.6045 -7.4226 7.64388e-10 4.28862e-09 -1.25756e-09 1.35926e-09 7.22783e-09 -2.14495e-09 7.64398e-10 4.28861e-09 -1.25756e-09 7.73091 5.47488 0.417314 7.64392e-10 4.2886e-09 -1.25755e-09 2.90554 0.965183 0.102902 7.644e-10 4.28861e-09 -1.25756e-09 10.2786 0.731801 0.0259123 7.64384e-10 4.28861e-09 -1.25755e-09 2.22167 -0.733487 -0.20892 -1.65817e-14 -2.06087e-13 2.5196e-14 -35.1931 0.123778 1.59161 27.0853 -26.6271 -61.8802 1.63495 -33.8 5.39479 -5.48127e-11 4.14264e-09 2.55848e-10 -1.01292e-10 7.21732e-09 4.42573e-10 -5.48143e-11 4.14267e-09 2.55856e-10 -7.73091 5.47488 -0.417314 -5.48116e-11 4.14267e-09 2.55849e-10 -2.90554 0.965183 -0.102902 -5.48207e-11 4.14266e-09 2.55851e-10 -10.2786 0.731801 -0.0259123 -5.4815e-11 4.14266e-09 2.55838e-10 -2.22167 -0.733487 0.20892 -2.03217e-16 0.0 -3.88251e-19 -24.2595 -31.8405 -18.3721 -0.723038 53.57 1.11507 -11.6415 -16.5413 -28.4202 2.03217e-16 0.0 3.88251e-19 -10.1715 -6.26002 7.40173 0.402054 42.2054 -0.707097 1.12655 -19.9561 1.66456
78.7802 80.4134 -0.317433 2.7429 -44.5241 344.067 -13.1993 28.0084 2.26234 1.92817 -7.26798 -0.240991 10.6743 -7.55557 8.8678 -21.7071 -13.9494 10.7263 -0.0 0.0 0.0 -0.0 0.0 0.0 1.77059e-14 -1.44726e-13 -9.44227e-15 37.1697 -33.4645 -39.2414 -17.3957 -10.0513 32.6781 -3.05687 -43.4746 -7.65744 8.85193e-10 3.48625e-09 -9.46829e-10 1.55931e-09 5.85676e-09 -1.60333e-09 8.85203e-10 3.48624e-09 -9.46832e-10 7.73091 5.47488 0.417314 8.85196e-10 3.48624e-09 -9.46823e-10 2.90554 0.965183 0.102902 8.85205e-10 3.48625e-09 -9.46829e-10 10.2786 0.731801 0.0259123 8.8519e-10 3.48624e-09 -9.46823e-10 2.22167 -0.733487 -0.20892 1.72812e-14 -1.44708e-13 -9.64106e-15 -34.8868 1.42016 -0.338831 27.0801 -26.6092 -61.8513 1.48406 -32.3672 5.11052 7.00255e-11 -6.11099e-10 3.47984e-11 1.19136e-10 -1.01287e-09 6.52523e-11 7.00259e-11 -6.11071e-10 3.48048e-11 -7.73091 5.47488 -0.417314 7.00273e-11 -6.11072e-10 3.47984e-11 -2.90554 0.965183 -0.102902 7.00178e-11 -6.11067e-10 3.48008e-11 -10.2786 0.731801 -0.0259123 7.00217e-11 -6.11075e-10 3.47889e-11 -2.22167 -0.733487 0.20892 -2.03217e-16 0.0 -3.88251e-19 -23.3532 -32.7971 -19.1491 -0.765384 54.554 1.17904 -11.5608 -16.6718 -27.9706 2.03217e-16 0.0 3.88251e-19 -10.5214 -6.60632 6.65427 0.374581 41.0029 -0.678419 1.0437 -18.7223 1.51181
79.5977 80.8938 -0.771202 1.6976 -43.7112 345.232 -13.5547 27.8661 2.31795 1.94654 -7.22399 -0.249959 10.4187 -7.61523 9.07533 -21.3301 -13.184 11.416 -0.0 0.0 0.0 -0.0 0.0 0.0 -3.42837e-14 -1.57981e-13 9.76382e-14 37.4808 -32.5292 -38.1125 -17.7846 -10.4603 33.5292 -3.10202 -43.6942 -7.71966 1.15388e-09 3.40022e-09 -8.156e-10 2.01694e-09 5.70661e-09 -1.3661e-09 1.15389e-09 3.40021e-09 -8.15602e-10 7.73091 5.47488 0.417314 1.15389e-09 3.40021e-09 -8.15594e-10 2.90554 0.965183 0.102902 1.15389e-09 3.40022e-09 -8.15599e-10 10.2786 0.731801 0.0259123 1.15388e-09 3.40022e-09 -8.15592e-10 2.22167 -0.733487 -0.20892 -3.46732e-14 -1.57965e-13 9.74317e-14 -34.5777 2.85496 -2.1335 27.0928 -26.6528 -61.9204 1.37707 -31.3017 4.90399 -4.6103e-10 -2.03873e-09 -6.28953e-10 -7.82362e-10 -3.60989e-09 -1.09103e-09 -4.61029e-10 -2.03871e-09 -6.28947e-10 -7.73091 5.47488 -0.417314 -4.61029e-10 -2.03871e-09 -6.28954e-10 -2.90554 0.965183 -0.102902 -4.61038e-10 -2.0387e-09 -6.2895e-10 -10.2786 0.731801 -0.0259123 -4.61034e-10 -2.03871e-09 -6.2896e-10 -2.22167 -0.733487 0.20892 -2.03217e-16 0.0 -3.88251e-19 -22.0554 -33.5951 -19.8369 -0.802412 55.3573 1.23033 -11.3319 -16.4771 -27.5467 2.03217e-16 0.0 3.88251e-19 -10.6434 -6.83412 5.73093 0.346043 39.6479 -0.646424 0.944619 -17.3909 1.30317
